<?xml version="1.0" encoding="UTF-8"?>
<svg version="1.1" xmlns="http://www.w3.org/2000/svg" width="1260" height="1280">
<path d="M0 0 C0.96921387 0.31445068 0.96921387 0.31445068 1.95800781 0.63525391 C23.51420799 7.73862885 45.16863994 19.68906391 62 35 C62 35.66 62 36.32 62 37 C62.89187012 37.40508789 62.89187012 37.40508789 63.80175781 37.81835938 C65.98591927 38.99243106 67.42293638 40.16497736 69.171875 41.90625 C69.74969727 42.47988281 70.32751953 43.05351563 70.92285156 43.64453125 C71.52581055 44.25683594 72.12876953 44.86914062 72.75 45.5 C73.37616211 46.13292969 74.00232422 46.76585937 74.64746094 47.41796875 C79.47552919 52.35366112 83.88885924 57.44827508 88 63 C88.7528125 63.96292969 89.505625 64.92585938 90.28125 65.91796875 C111.74919973 93.9712583 124.93925758 131.55217544 123 167 C121.04634694 168.95365306 118.06600248 168.12022124 115.46598816 168.12442017 C114.52515884 168.12082489 113.58432953 168.11722961 112.61499023 168.11352539 C111.13710526 168.11374443 111.13710526 168.11374443 109.62936401 168.1139679 C106.35575193 168.11326832 103.08219596 168.10547385 99.80859375 168.09765625 C97.54557832 168.09579223 95.28256249 168.09436825 93.01954651 168.09336853 C87.05021052 168.0895421 81.08089868 168.07971075 75.11157227 168.06866455 C69.02555671 168.05845312 62.93953727 168.05387149 56.85351562 168.04882812 C44.90233311 168.03808859 32.95116856 168.02101068 21 168 C19.7568159 165.51363181 19.84521393 163.33114574 19.76098633 160.59228516 C19.07713136 139.95849491 12.64282488 123.83658465 -2.0390625 108.9296875 C-6.59367627 104.73799117 -11.49441527 101.78197391 -17 99 C-17.64710938 98.65195313 -18.29421875 98.30390625 -18.9609375 97.9453125 C-39.32110381 87.22506167 -63.93831242 85.89060959 -86 92 C-90.1279185 93.43663057 -94.05895377 95.11540947 -98 97 C-98.70253906 97.30679688 -99.40507813 97.61359375 -100.12890625 97.9296875 C-109.2742523 102.10513842 -116.70654225 108.25420584 -123 116 C-123.66 116 -124.32 116 -125 116 C-125.25910156 116.53625 -125.51820313 117.0725 -125.78515625 117.625 C-126.68259992 119.37948794 -127.63697831 121.105119 -128.62109375 122.8125 C-137.02537864 137.56066445 -139.28056513 152.14381571 -135.5625 168.6875 C-131.71590328 181.45120731 -123.8010446 190.42618541 -113 198 C-112.09378906 198.64066406 -111.18757813 199.28132812 -110.25390625 199.94140625 C-93.28005604 211.09951496 -73.96352266 217.92807332 -54.88061523 224.50756836 C-41.08574631 229.26658541 -27.5119961 234.48227643 -14 240 C-13.19449707 240.32806641 -12.38899414 240.65613281 -11.55908203 240.99414062 C10.09879696 249.89982166 30.74871922 261.70677984 50 275 C50.79019531 275.53753906 51.58039062 276.07507813 52.39453125 276.62890625 C74.29827086 291.70361925 93.86880661 308.82444992 112.6875 327.5625 C113.81877319 328.68676392 113.81877319 328.68676392 114.97290039 329.83374023 C126 340.89318833 126 340.89318833 126 344 C126.99 344.33 127.98 344.66 129 345 C130.32763672 346.38842773 130.32763672 346.38842773 131.6796875 348.18359375 C132.18991455 348.85487305 132.7001416 349.52615234 133.22583008 350.21777344 C133.77005615 350.9502832 134.31428223 351.68279297 134.875 352.4375 C135.44436279 353.19450195 136.01372559 353.95150391 136.6003418 354.73144531 C138.41010653 357.1471148 140.20660386 359.57215911 142 362 C142.57733887 362.77811035 143.15467773 363.5562207 143.74951172 364.35791016 C150.62006008 373.64185353 157.23422775 382.97966488 163 393 C163.50112305 393.86447754 164.00224609 394.72895508 164.51855469 395.61962891 C173.06367235 410.41949658 180.98689513 425.41220558 188 441 C188.44714355 441.9902417 188.44714355 441.9902417 188.90332031 443.00048828 C205.83145234 481.14618653 214.84442765 525.44062162 216.5625 567.125 C216.60568359 568.05570313 216.64886719 568.98640625 216.69335938 569.9453125 C219.03468547 624.6505826 209.46390252 680.82228205 188.14892578 731.25390625 C187.09536291 733.77206928 186.08259455 736.3011194 185.08984375 738.84375 C181.94675537 746.84785534 178.352969 754.23917074 173.953125 761.625 C172.04692406 764.91891523 170.38752895 768.25345871 168.75 771.6875 C151.76491698 806.20056824 125.55996471 836.42363712 98.625 863.5 C97.88805908 864.24169434 97.15111816 864.98338867 96.3918457 865.74755859 C84.58286349 877.52059059 71.54149368 888.87876984 57.68359375 898.1796875 C55.51761689 899.64889451 53.39909028 901.15358306 51.28515625 902.6953125 C28.08328361 919.54396487 2.31645173 932.72915883 -24 944 C-24.7621582 944.33451172 -25.52431641 944.66902344 -26.30957031 945.01367188 C-69.73449613 963.99704379 -117.33197407 971.24996143 -164.4375 971.1875 C-165.35752808 971.18656342 -166.27755615 971.18562683 -167.22546387 971.18466187 C-204.2949071 971.10323905 -239.54514074 965.90918747 -275 955 C-275 1025.95 -275 1096.9 -275 1170 C-278.26916714 1171.63458357 -281.88059289 1171.13812606 -285.47290039 1171.12939453 C-286.3494075 1171.13114685 -287.22591461 1171.13289917 -288.12898254 1171.13470459 C-291.03522707 1171.13911713 -293.94141107 1171.13618746 -296.84765625 1171.1328125 C-298.86022453 1171.13348565 -300.87279272 1171.13445577 -302.88536072 1171.13571167 C-307.10628024 1171.13718778 -311.32717863 1171.13503662 -315.5480957 1171.13037109 C-320.97136903 1171.12467021 -326.39459291 1171.12795564 -331.81786442 1171.13394356 C-335.97411983 1171.13754838 -340.13036343 1171.13641101 -344.28661919 1171.13381577 C-346.28700199 1171.13314647 -348.28738584 1171.13397502 -350.28776741 1171.13629532 C-353.07737213 1171.13882095 -355.86689551 1171.13498269 -358.65649414 1171.12939453 C-359.90873779 1171.13243088 -359.90873779 1171.13243088 -361.1862793 1171.13552856 C-366.88573679 1171.11426321 -366.88573679 1171.11426321 -368 1170 C-368.09068554 1168.63538025 -368.11194703 1167.26607124 -368.10514545 1165.89845848 C-368.10321951 1165.00903506 -368.10129357 1164.11961163 -368.09930927 1163.20323598 C-368.09210194 1162.2148409 -368.08489461 1161.22644582 -368.07746887 1160.20809937 C-368.07217565 1158.64614206 -368.07217565 1158.64614206 -368.0667755 1157.05263007 C-368.0584087 1154.75737659 -368.0477231 1152.46213074 -368.03508186 1150.16689682 C-368.01453662 1146.43286423 -367.9997145 1142.69884801 -367.98648071 1138.96478271 C-367.97218518 1134.94494353 -367.95770711 1130.92510833 -367.94112074 1126.90527797 C-367.90046221 1116.93160971 -367.87978557 1106.95802852 -367.8712616 1096.98428345 C-367.87029266 1095.9033573 -367.87029266 1095.9033573 -367.86930416 1094.80059426 C-367.86340782 1088.10606024 -367.85875805 1081.41152552 -367.85458529 1074.71699023 C-367.85162653 1070.12268675 -367.84791225 1065.52838435 -367.84350586 1060.93408203 C-367.84278325 1060.17088632 -367.84206064 1059.40769062 -367.84131613 1058.62136777 C-367.82841615 1046.26195041 -367.7761018 1033.90298375 -367.71010736 1021.54374962 C-367.64336119 1008.85918319 -367.62222951 996.17511351 -367.64257544 983.49038565 C-367.65362487 975.66409474 -367.62863829 967.8396111 -367.55745133 960.01362891 C-367.50659885 954.0126152 -367.51883748 948.01342215 -367.55459976 942.01222992 C-367.55932484 939.55113217 -367.54347635 937.08989662 -367.50561714 934.62908554 C-366.71170067 922.00338959 -366.71170067 922.00338959 -371.59645653 911.06723404 C-374.70543485 909.22838462 -377.57506793 908.10921866 -381 907 C-382.65709472 905.99448881 -384.28861152 904.9434889 -385.87109375 903.82421875 C-386.62310059 903.31165527 -387.37510742 902.7990918 -388.14990234 902.27099609 C-388.90480957 901.74844238 -389.6597168 901.22588867 -390.4375 900.6875 C-391.2517041 900.12627441 -392.0659082 899.56504883 -392.90478516 898.98681641 C-406.76171103 889.36873701 -419.65517203 878.67113751 -432.27734375 867.49609375 C-433.98445616 866.01349953 -435.73501552 864.6003066 -437.5 863.1875 C-438.325 862.465625 -439.15 861.74375 -440 861 C-440 860.34 -440 859.68 -440 859 C-440.57105469 858.75507812 -441.14210938 858.51015625 -441.73046875 858.2578125 C-448.21567944 854.66359935 -453.22051661 847.86447132 -458 842.27734375 C-459.55557353 840.50605593 -461.13299984 838.78036069 -462.75 837.06640625 C-469.68312409 829.71224224 -475.99303773 822.12585649 -482 814 C-482.6290625 813.16726563 -483.258125 812.33453125 -483.90625 811.4765625 C-494.92740432 796.67272386 -504.97380267 781.09262734 -514 765 C-514.52086182 764.07791748 -514.52086182 764.07791748 -515.05224609 763.13720703 C-530.43347137 735.73319888 -541.79959045 705.723407 -549.42236328 675.28759766 C-549.9411305 673.23313912 -550.48278902 671.18449301 -551.02734375 669.13671875 C-559.93248232 634.12414582 -562.20275824 597.95312778 -560 562 C-559.94859863 560.97213379 -559.89719727 559.94426758 -559.84423828 558.88525391 C-558.92855727 540.5921121 -555.72219649 522.89129045 -552 505 C-551.81147461 504.08653809 -551.62294922 503.17307617 -551.42871094 502.23193359 C-549.05206575 490.91380039 -545.64575003 479.96149632 -542 469 C-541.74379883 468.21286621 -541.48759766 467.42573242 -541.22363281 466.61474609 C-534.45497811 445.87990236 -525.53748057 426.05747194 -515.06201172 406.93896484 C-514.11559593 405.21104893 -513.18372235 403.47518604 -512.25390625 401.73828125 C-499.5394911 378.05974707 -483.82331377 355.1539327 -465.37890625 335.5546875 C-463.48665598 333.52261578 -461.67380086 331.46189965 -459.8671875 329.35546875 C-455.33211952 324.15199159 -450.45167603 319.30582666 -445.5625 314.4375 C-444.20801758 313.0772168 -444.20801758 313.0772168 -442.82617188 311.68945312 C-437.71288041 306.58356687 -432.50689901 301.6774966 -427 297 C-425.99047314 296.12287011 -424.98133049 295.24529774 -423.97265625 294.3671875 C-406.57399627 279.46739546 -388.09475986 266.11516941 -368.38745117 254.41821289 C-366.1978295 253.11751626 -364.02380004 251.79427922 -361.8515625 250.46484375 C-336.04401998 234.90756066 -307.73469676 223.50933316 -279.25 213.875 C-278.10072021 213.4840918 -276.95144043 213.09318359 -275.76733398 212.69042969 C-274.69427002 212.33625977 -273.62120605 211.98208984 -272.515625 211.6171875 C-271.56977539 211.30378418 -270.62392578 210.99038086 -269.64941406 210.66748047 C-266.98706558 209.99674136 -264.73268493 209.87184735 -262 210 C-261.70867187 210.71542969 -261.41734375 211.43085938 -261.1171875 212.16796875 C-252.03771155 234.23851877 -241.30342141 252.75832168 -226 271 C-225.54109375 271.58265625 -225.0821875 272.1653125 -224.609375 272.765625 C-221.72629967 276.41752042 -218.42953704 279.34592937 -214.90234375 282.34765625 C-213 284 -213 284 -210.5625 286.5 C-207.55959381 289.42966457 -204.29643879 291.8123212 -200.890625 294.25390625 C-198.81253246 296.17313634 -198.36245871 297.23927282 -198 300 C-200.72605833 301.49529178 -202.98069209 302.30315611 -206.0625 302.67578125 C-207.24235474 302.83022705 -207.24235474 302.83022705 -208.44604492 302.98779297 C-209.2888501 303.09494629 -210.13165527 303.20209961 -211 303.3125 C-246.40443903 308.23400481 -281.40832844 320.96406458 -312.625 338.1875 C-313.72581909 338.79319824 -313.72581909 338.79319824 -314.84887695 339.41113281 C-318.8928239 341.68112575 -322.68660931 344.12698528 -326.42407227 346.87109375 C-328.53639701 348.38424474 -330.76707178 349.67339944 -333 351 C-335.6170573 352.83233247 -338.2054372 354.70048901 -340.79296875 356.57421875 C-343 358 -343 358 -345 358 C-345 358.66 -345 359.32 -345 360 C-346.29296875 361.12109375 -346.29296875 361.12109375 -348.1875 362.4375 C-359.09742423 370.44564818 -368.73950507 379.53352804 -378.3125 389.0625 C-378.83005859 389.5748822 -379.34761719 390.0872644 -379.88085938 390.61517334 C-386.38743825 397.07046858 -392.42806126 403.70592826 -398 411 C-398.9060022 412.14575851 -399.81336186 413.29044621 -400.72265625 414.43359375 C-405.894277 421.07295328 -410.60659331 427.81170301 -415 435 C-415.63550781 435.99386719 -416.27101563 436.98773438 -416.92578125 438.01171875 C-422.23993711 446.40086188 -426.75713232 455.02981198 -431 464 C-431.37833984 464.79921875 -431.75667969 465.5984375 -432.14648438 466.421875 C-437.165576 477.10714774 -441.5369694 487.70299756 -445 499 C-445.33386719 499.96808594 -445.66773438 500.93617188 -446.01171875 501.93359375 C-450.90708522 516.50359752 -453.26459385 531.99079328 -455.75 547.125 C-455.92317749 548.15004639 -455.92317749 548.15004639 -456.09985352 549.19580078 C-466.80554668 617.74794974 -447.63845553 691.95798391 -407.51025391 747.93945312 C-402.49051179 754.78824451 -396.95064913 761.18534641 -391.21484375 767.44140625 C-390 769 -390 769 -390 771 C-389.01 771.33 -388.02 771.66 -387 772 C-385.52734375 773.49609375 -385.52734375 773.49609375 -383.9375 775.4375 C-376.86037194 784.29818384 -376.86037194 784.29818384 -368 791 C-368.00184359 789.90891685 -368.00368717 788.81783371 -368.00558662 787.69368744 C-368.05014318 761.04739437 -368.08292585 734.40110618 -368.10362434 707.75478363 C-368.11390206 694.86840993 -368.12789475 681.98206095 -368.15087891 669.09570312 C-368.17092076 657.8535493 -368.18374185 646.61141339 -368.18817699 635.36924219 C-368.19076623 629.42608576 -368.19677751 623.48298057 -368.21146011 617.5398407 C-368.22521535 611.92564044 -368.22918712 606.31151166 -368.22621536 600.69729614 C-368.22675762 598.65620025 -368.23062671 596.61510151 -368.23841095 594.57402039 C-368.30596435 575.917719 -367.88561291 556.83036158 -363.75 538.5625 C-363.53601563 537.57862305 -363.32203125 536.59474609 -363.1015625 535.58105469 C-361.1040508 526.7673213 -358.3342075 518.3890087 -355 510 C-354.60039062 508.96230469 -354.20078125 507.92460938 -353.7890625 506.85546875 C-344.53379394 483.65518145 -331.18640272 463.11160874 -314 445 C-312.64455078 443.56527344 -312.64455078 443.56527344 -311.26171875 442.1015625 C-276.97469114 406.47897572 -227.86601297 385.09832712 -178.484375 383.875 C-160.23969152 383.57140099 -142.71384323 385.6515028 -125 390 C-124.29166016 390.17370117 -123.58332031 390.34740234 -122.85351562 390.52636719 C-104.47011976 395.17810581 -87.14212778 403.12470847 -71 413 C-69.99195313 413.61101562 -68.98390625 414.22203125 -67.9453125 414.8515625 C-53.13961281 424.28066664 -38.17723545 436.41998073 -27 450 C-26.56671387 450.52094238 -26.13342773 451.04188477 -25.68701172 451.57861328 C-14.72324719 464.80126254 -5.25276743 478.31609602 2.0234375 493.91113281 C2.68129104 495.31828154 3.34816411 496.72124454 4.0234375 498.12011719 C9.44402808 509.35357792 13.2666893 520.66631108 16.40673828 532.73095703 C16.90520141 534.63742464 17.43176241 536.5365148 17.96484375 538.43359375 C21.83174386 552.61222749 22.37931228 567.02422966 22.3125 581.625 C22.30976578 582.87091415 22.30976578 582.87091415 22.30697632 584.14199829 C22.25857713 597.27804239 21.7082234 610.10433842 19 623 C18.83902832 623.77649902 18.67805664 624.55299805 18.51220703 625.35302734 C12.17665125 654.59639481 -0.88528602 682.90788089 -20 706 C-21.25103516 707.52753906 -21.25103516 707.52753906 -22.52734375 709.0859375 C-50.10404555 742.44010068 -88.42887891 766.3220407 -131 775 C-132.19109375 775.27714844 -133.3821875 775.55429687 -134.609375 775.83984375 C-159.20878857 780.99726629 -187.69538133 779.8541025 -212 774 C-213.33272949 773.68651611 -213.33272949 773.68651611 -214.69238281 773.36669922 C-234.57467701 768.54948275 -252.76513163 760.24740976 -270.34033203 749.88867188 C-272.16696412 748.85043477 -272.16696412 748.85043477 -275 748 C-274.83748025 748.57569355 -274.6749605 749.1513871 -274.50751591 749.74452591 C-274.01141374 751.94927569 -273.87676389 753.83349762 -273.87974548 756.08758545 C-273.87768349 757.29485039 -273.87768349 757.29485039 -273.87557983 758.52650452 C-273.87917511 759.40044357 -273.88277039 760.27438263 -273.88647461 761.17480469 C-273.88632858 762.101978 -273.88618256 763.02915131 -273.8860321 763.98442078 C-273.88672838 767.04692937 -273.89450751 770.10937704 -273.90234375 773.171875 C-273.90420894 775.2960812 -273.90563237 777.42028784 -273.90663147 779.54449463 C-273.91044869 785.13402495 -273.92027222 790.72352927 -273.93133545 796.31304932 C-273.94156663 802.01728972 -273.94613275 807.72153432 -273.95117188 813.42578125 C-273.96189518 824.61719892 -273.97896209 835.8085973 -274 847 C-272.73247721 847.64304285 -271.46386768 848.28394386 -270.19480896 848.9239502 C-269.13530108 849.45965008 -269.13530108 849.45965008 -268.054389 850.00617218 C-265.40039891 851.29006203 -262.70286307 852.2775273 -259.91015625 853.21875 C-258.80510742 853.59169189 -257.70005859 853.96463379 -256.56152344 854.34887695 C-255.4068457 854.72874756 -254.25216797 855.10861816 -253.0625 855.5 C-251.85754883 855.89727295 -250.65259766 856.2945459 -249.41113281 856.70385742 C-240.34880417 859.64747383 -231.35746292 862.21320859 -222 864 C-221.09765625 864.17370117 -220.1953125 864.34740234 -219.265625 864.52636719 C-216.26299399 865.0953181 -213.25769307 865.64596948 -210.25 866.1875 C-209.32735352 866.35483643 -208.40470703 866.52217285 -207.45410156 866.69458008 C-193.68545324 869.06389221 -179.92872562 869.20593862 -166 869.1875 C-165.08759552 869.18656342 -164.17519104 869.18562683 -163.23513794 869.18466187 C-86.49431802 869.01375815 -17.44754501 836.68230675 36.45727539 782.72802734 C42.04032267 777.07530176 47.18302786 771.32522174 52 765 C52.79277344 764.00097656 53.58554687 763.00195312 54.40234375 761.97265625 C77.2995385 733.01391731 93.32611138 699.56312841 103 664 C103.28568848 662.97205322 103.28568848 662.97205322 103.57714844 661.92333984 C110.09411567 638.10046596 112.22224985 613.11704787 112.1875 588.5 C112.18689575 587.70597778 112.1862915 586.91195557 112.18566895 586.09387207 C112.15998136 573.62787379 111.76164491 561.35784331 110 549 C109.87109375 548.06365723 109.7421875 547.12731445 109.609375 546.16259766 C107.52958568 531.43797816 104.31514367 517.22612874 100 503 C99.78730469 502.29552734 99.57460938 501.59105469 99.35546875 500.86523438 C89.93661071 470.1476038 74.42550314 440.81762594 54 416 C53.59281738 415.5040332 53.18563477 415.00806641 52.76611328 414.49707031 C47.65344483 408.29264371 42.48096953 402.28604229 36.69140625 396.6953125 C35 395 35 395 32.5625 391.9375 C29.69913963 388.65511128 26.58976075 386.25705735 23.12109375 383.6484375 C20.52657327 381.63206984 18.32267418 379.32267418 16 377 C-17.05280646 348.43915709 -57.80940769 330.40974825 -98.76171875 316.359375 C-133.71288319 304.36300563 -167.8362173 290.79731193 -195 265 C-195.474375 264.55285645 -195.94875 264.10571289 -196.4375 263.64501953 C-224.07402537 237.43890026 -239.83771017 201.84205593 -241.22265625 163.7734375 C-242.17705888 122.14365731 -227.27858114 84.83012067 -201.5234375 52.5546875 C-201.02070312 52.04164062 -200.51796875 51.52859375 -200 51 C-199.34 51 -198.68 51 -198 51 C-197.62681641 50.13955078 -197.62681641 50.13955078 -197.24609375 49.26171875 C-192.67792195 40.97027212 -183.32124939 34.73183297 -176 29 C-175.03964844 28.24589844 -174.07929687 27.49179688 -173.08984375 26.71484375 C-155.54006532 13.23457916 -136.4826848 3.60944159 -115.19775391 -2.37988281 C-113.19148305 -2.94597123 -111.19471913 -3.54548055 -109.19921875 -4.1484375 C-73.90944474 -14.06087666 -34.59877815 -11.4805788 0 0 Z M-213 488 C-214.051875 488.44214844 -215.10375 488.88429688 -216.1875 489.33984375 C-238.05377489 499.3715789 -256.15263848 519.48241935 -264.703125 541.83837891 C-266.28503141 546.18312879 -267.6756465 550.57043887 -269 555 C-269.2371875 555.77730469 -269.474375 556.55460938 -269.71875 557.35546875 C-275.86519436 580.7209962 -271.15376163 607.52152307 -259.12109375 628.17724609 C-255.85297528 633.49078539 -252.11558691 638.31947224 -248 643 C-247.27901123 643.82177734 -247.27901123 643.82177734 -246.54345703 644.66015625 C-236.46535779 655.90952051 -224.20829278 664.67844385 -210 670 C-208.76636719 670.50080078 -208.76636719 670.50080078 -207.5078125 671.01171875 C-183.39599613 680.41183267 -157.01747382 679.42597114 -133.25610352 669.34643555 C-109.71913969 658.61741973 -90.59942391 639.12842073 -81.19335938 614.92431641 C-72.17071607 589.42166036 -71.79602471 561.43214957 -83.15942383 536.57299805 C-94.25328487 513.67506014 -114.91122199 493.86962199 -139.04345703 485.27197266 C-141.24894886 484.54207989 -143.46192565 483.85356205 -145.6875 483.1875 C-146.72028076 482.8769165 -146.72028076 482.8769165 -147.77392578 482.56005859 C-169.21357759 476.49936159 -192.8190471 479.36242443 -213 488 Z " fill="#FEFEFE" transform="translate(810,65)"/>
<path d="" fill="#FFFFFF" transform="translate(0,0)"/>
<path d="" fill="#FFFFFF" transform="translate(0,0)"/>
<path d="" fill="#FFFFFF" transform="translate(0,0)"/>
</svg>
